<mxfile host="app.diagrams.net" modified="2021-11-01T14:59:17.723Z" agent="5.0 (X11; Linux x86_64) AppleWebKit/537.36 (KHTML, like Gecko) Chrome/95.0.4638.69 Safari/537.36" etag="KGPgAMmFTDZKxsf1BJTM" version="15.6.3" type="gitlab">
  <diagram id="QxpGsZLzWiX4R9tILU-h" name="Page-1">
    <mxGraphModel dx="1992" dy="1133" grid="1" gridSize="10" guides="1" tooltips="1" connect="1" arrows="1" fold="1" page="1" pageScale="1" pageWidth="850" pageHeight="1100" math="0" shadow="0">
      <root>
        <mxCell id="0" />
        <mxCell id="1" parent="0" />
        <mxCell id="zg08d9O0bxHgf4c_MQWC-8" style="edgeStyle=orthogonalEdgeStyle;rounded=0;orthogonalLoop=1;jettySize=auto;html=1;entryX=0;entryY=0.5;entryDx=0;entryDy=0;fontSize=16;" parent="1" source="zg08d9O0bxHgf4c_MQWC-1" target="zg08d9O0bxHgf4c_MQWC-7" edge="1">
          <mxGeometry relative="1" as="geometry" />
        </mxCell>
        <mxCell id="zg08d9O0bxHgf4c_MQWC-1" value="&lt;b style=&quot;font-size: 16px&quot;&gt;Data from different sources&lt;br&gt;&lt;/b&gt;&lt;br&gt;&lt;br&gt;&lt;br&gt;&lt;br&gt;&lt;br&gt;&lt;br&gt;&lt;br&gt;&lt;br&gt;&lt;br&gt;&lt;br&gt;&lt;br&gt;&lt;br&gt;&lt;br&gt;&lt;br&gt;&lt;br&gt;&lt;br&gt;&lt;br&gt;&lt;br&gt;&lt;br&gt;&lt;br&gt;&lt;br&gt;&lt;br&gt;&lt;br&gt;&lt;br&gt;&lt;br&gt;&lt;br&gt;&lt;br&gt;&lt;br&gt;&lt;br&gt;" style="rounded=0;whiteSpace=wrap;html=1;fillColor=none;" parent="1" vertex="1">
          <mxGeometry x="70" y="340" width="280" height="480" as="geometry" />
        </mxCell>
        <mxCell id="zg08d9O0bxHgf4c_MQWC-3" value="MAVEN" style="rounded=1;whiteSpace=wrap;html=1;fontSize=16;fillColor=none;" parent="1" vertex="1">
          <mxGeometry x="140" y="410" width="120" height="60" as="geometry" />
        </mxCell>
        <mxCell id="zg08d9O0bxHgf4c_MQWC-4" value="EventStoryline" style="rounded=1;whiteSpace=wrap;html=1;fontSize=16;fillColor=none;" parent="1" vertex="1">
          <mxGeometry x="140" y="490" width="120" height="60" as="geometry" />
        </mxCell>
        <mxCell id="zg08d9O0bxHgf4c_MQWC-5" value="TREC-IS" style="rounded=1;whiteSpace=wrap;html=1;fontSize=16;fillColor=none;" parent="1" vertex="1">
          <mxGeometry x="140" y="570" width="120" height="60" as="geometry" />
        </mxCell>
        <mxCell id="zg08d9O0bxHgf4c_MQWC-6" value="etc." style="text;html=1;strokeColor=none;fillColor=none;align=center;verticalAlign=middle;whiteSpace=wrap;rounded=0;fontSize=16;" parent="1" vertex="1">
          <mxGeometry x="170" y="660" width="60" height="30" as="geometry" />
        </mxCell>
        <mxCell id="zg08d9O0bxHgf4c_MQWC-11" value="" style="edgeStyle=orthogonalEdgeStyle;rounded=0;orthogonalLoop=1;jettySize=auto;html=1;fontSize=16;" parent="1" source="zg08d9O0bxHgf4c_MQWC-7" target="zg08d9O0bxHgf4c_MQWC-10" edge="1">
          <mxGeometry relative="1" as="geometry" />
        </mxCell>
        <mxCell id="zg08d9O0bxHgf4c_MQWC-7" value="&lt;div&gt;&lt;span&gt;repo: data-acquisition&lt;/span&gt;&lt;/div&gt;&lt;div&gt;&lt;span&gt;task:&amp;nbsp;&lt;/span&gt;&lt;/div&gt;&lt;div&gt;&lt;span&gt;1. convert datum of different formats into .tsv&lt;/span&gt;&lt;/div&gt;&lt;div&gt;&lt;span&gt;2. preprocess&amp;nbsp;&amp;nbsp;&lt;/span&gt;&lt;/div&gt;" style="shape=process;whiteSpace=wrap;html=1;backgroundOutline=1;fontSize=16;fillColor=none;align=left;" parent="1" vertex="1">
          <mxGeometry x="450" y="370" width="350" height="130" as="geometry" />
        </mxCell>
        <mxCell id="zg08d9O0bxHgf4c_MQWC-14" value="" style="edgeStyle=orthogonalEdgeStyle;rounded=0;orthogonalLoop=1;jettySize=auto;html=1;fontSize=16;" parent="1" source="zg08d9O0bxHgf4c_MQWC-10" target="zg08d9O0bxHgf4c_MQWC-13" edge="1">
          <mxGeometry relative="1" as="geometry" />
        </mxCell>
        <mxCell id="zg08d9O0bxHgf4c_MQWC-24" value="" style="edgeStyle=orthogonalEdgeStyle;rounded=0;orthogonalLoop=1;jettySize=auto;html=1;fontSize=16;entryX=0;entryY=0.5;entryDx=0;entryDy=0;" parent="1" source="zg08d9O0bxHgf4c_MQWC-10" target="zg08d9O0bxHgf4c_MQWC-23" edge="1">
          <mxGeometry relative="1" as="geometry" />
        </mxCell>
        <mxCell id="zg08d9O0bxHgf4c_MQWC-28" value="" style="edgeStyle=orthogonalEdgeStyle;rounded=0;orthogonalLoop=1;jettySize=auto;html=1;fontSize=16;entryX=0;entryY=0.5;entryDx=0;entryDy=0;" parent="1" source="zg08d9O0bxHgf4c_MQWC-10" target="zg08d9O0bxHgf4c_MQWC-27" edge="1">
          <mxGeometry relative="1" as="geometry" />
        </mxCell>
        <mxCell id="zg08d9O0bxHgf4c_MQWC-10" value="preprocessed datum in tsv format" style="ellipse;whiteSpace=wrap;html=1;fontSize=16;fillColor=none;" parent="1" vertex="1">
          <mxGeometry x="517.5" y="650" width="215" height="120" as="geometry" />
        </mxCell>
        <mxCell id="zg08d9O0bxHgf4c_MQWC-13" value="Repo: Event Detection" style="shape=process;whiteSpace=wrap;html=1;backgroundOutline=1;fontSize=16;fillColor=none;" parent="1" vertex="1">
          <mxGeometry x="910" y="640" width="280" height="140" as="geometry" />
        </mxCell>
        <mxCell id="zg08d9O0bxHgf4c_MQWC-23" value="Repo: few-shot learning with GNN-based feature transformation" style="shape=process;whiteSpace=wrap;html=1;backgroundOutline=1;fontSize=16;fillColor=none;" parent="1" vertex="1">
          <mxGeometry x="910" y="370" width="280" height="135" as="geometry" />
        </mxCell>
        <mxCell id="zg08d9O0bxHgf4c_MQWC-27" value="etc.." style="shape=process;whiteSpace=wrap;html=1;backgroundOutline=1;fontSize=16;fillColor=none;" parent="1" vertex="1">
          <mxGeometry x="910" y="540" width="280" height="50" as="geometry" />
        </mxCell>
      </root>
    </mxGraphModel>
  </diagram>
</mxfile>
